<?xml version="1.0" encoding="UTF-8"?>
<svg width="22px" height="28px" viewBox="0 0 22 28" version="1.1" xmlns="http://www.w3.org/2000/svg" xmlns:xlink="http://www.w3.org/1999/xlink">
    <!-- Generator: Sketch 53.1 (72631) - https://sketchapp.com -->
    <title>thegraph</title>
    <desc>Created with Sketch.</desc>
    <g id="Page-1" stroke="none" stroke-width="1" fill="none" fill-rule="evenodd">
        <g id="thegraph" fill="#ffffff" fill-rule="nonzero">
            <path d="M9.3333019,0 C14.487924,0 18.666604,4.1786795 18.666604,9.3333019 C18.666604,14.4879243 14.487924,18.6666038 9.3333019,18.6666038 C4.1786795,18.6666038 0,14.4879243 0,9.3333019 C0,4.1786795 4.1786795,0 9.3333019,0 Z M9.3333019,15.5555032 C12.769843,15.5555032 15.555503,12.7698425 15.555503,9.3333019 C15.555503,5.8967613 12.769843,3.1111006 9.3333019,3.1111006 C5.8969498,3.1111006 3.1111006,5.8967613 3.1111006,9.3333019 C3.1111006,12.7698425 5.8969498,15.5555032 9.3333019,15.5555032 Z M18.211063,19.1221444 C18.818576,19.7296575 18.818576,20.7144622 18.211063,21.3219753 L11.9886734,27.5443652 C11.3811603,28.1518783 10.3963556,28.1518783 9.7888425,27.5443652 C9.1813294,26.9368521 9.1813294,25.9520473 9.7888425,25.3445342 L16.011232,19.1221444 C16.618745,18.5146313 17.60355,18.5146313 18.211063,19.1221444 Z M21.777704,1.5555503 C21.777704,2.4147797 21.081384,3.1111006 20.222343,3.1111006 C19.363113,3.1111006 18.666792,2.4147797 18.666792,1.5555503 C18.666792,0.6963209 19.363113,0 20.222343,0 C21.081384,0 21.777704,0.6963209 21.777704,1.5555503 Z" id="Fill-19"></path>
        </g>
    </g>
</svg>