<?xml version="1.0" encoding="UTF-8"?>
<svg width="100px" height="28px" viewBox="0 0 100 28" version="1.1" xmlns="http://www.w3.org/2000/svg" xmlns:xlink="http://www.w3.org/1999/xlink">
    <!-- Generator: Sketch 52.5 (67469) - http://www.bohemiancoding.com/sketch -->
    <title>logo</title>
    <desc>Created with Sketch.</desc>
    <g id="Page-1" stroke="none" stroke-width="1" fill="none" fill-rule="evenodd">
        <g id="Digest-Form" transform="translate(-24.000000, -18.000000)" fill="#FFFFFF">
            <g id="logo" transform="translate(24.000000, 18.000000)">
                <path d="M35.1792829,5.69721116 C32.4701195,5.69721116 30.3585657,7.09163347 29.2430279,8.96414343 C28.3665339,10.438247 28.0478088,12.1115538 28.0478088,13.9840637 C28.0478088,16.2151394 28.685259,18.2868526 30,19.8007968 C31.1952191,21.2350598 32.9880478,22.1513944 35.2191235,22.1513944 C36.6932271,22.1513944 38.0876494,21.7131474 39.2031873,20.9561753 C40.4780876,20.0796813 41.3944223,18.6454183 41.6334661,17.0916335 L39.0438247,17.0916335 C38.8446215,17.9282869 38.5657371,18.3665339 38.12749,18.8047809 C37.4900398,19.4820717 36.4541833,19.8406375 35.2191235,19.8406375 C34.0239044,19.8406375 33.0677291,19.4422311 32.3505976,18.7250996 C31.3944223,17.7689243 30.8366534,16.2151394 30.8366534,14.7808765 L41.9521912,14.7808765 L41.9920319,13.187251 C42.0318725,11.0756972 41.2749004,9.0438247 40,7.64940239 C38.8047809,6.45418327 37.2111554,5.69721116 35.1792829,5.69721116 Z M30.876494,12.5498008 C30.9561753,10.2390438 32.3505976,7.92828685 35.1792829,7.92828685 C36.5737052,7.92828685 37.6095618,8.48605578 38.2868526,9.3625498 C38.9243028,10.1992032 39.2430279,11.3944223 39.2430279,12.5498008 L30.876494,12.5498008 Z" id="Shape" fill-rule="nonzero"></path>
                <path d="M50.9960159,5.73705179 C49.2430279,5.73705179 47.2111554,6.61354582 46.2948207,8.16733068 L45.8167331,6.13545817 L43.7848606,6.13545817 L43.7848606,27.8884462 L46.4143426,27.8884462 L46.4143426,19.9601594 C47.250996,21.3944223 49.2828685,22.1912351 50.9561753,22.1912351 C52.7888446,22.1912351 54.2231076,21.5537849 55.2589641,20.5976096 C56.8525896,19.0836653 57.6494024,16.6135458 57.6494024,13.9043825 C57.6494024,11.314741 56.8924303,8.92430279 55.3784861,7.41035857 C54.4223108,6.37450199 52.9083665,5.73705179 50.9960159,5.73705179 Z M50.5577689,20 C49.4023904,20 48.6454183,19.5219124 48.0079681,18.9641434 C46.6932271,17.8087649 46.2549801,15.936255 46.2549801,13.9840637 C46.2549801,12.0318725 46.6932271,10.1195219 48.0079681,9.00398406 C48.6454183,8.44621514 49.4023904,7.96812749 50.5577689,7.96812749 C54.063745,7.96812749 54.9800797,11.1155378 54.9800797,13.9840637 C54.9800797,16.8525896 54.063745,20 50.5577689,20 Z" id="Shape" fill-rule="nonzero"></path>
                <path d="M66.6533865,5.69721116 C63.9442231,5.69721116 61.8326693,7.09163347 60.7171315,8.96414343 C59.8406375,10.438247 59.5219124,12.1115538 59.5219124,13.9840637 C59.5219124,16.2151394 60.1593625,18.2868526 61.4741036,19.8007968 C62.6693227,21.2350598 64.4621514,22.1513944 66.6932271,22.1513944 C68.1673307,22.1513944 69.561753,21.7131474 70.6772908,20.9561753 C71.9521912,20.0796813 72.8685259,18.6454183 73.1075697,17.0916335 L70.5179283,17.0916335 C70.3187251,17.9282869 70.0398406,18.3665339 69.6015936,18.8047809 C68.9641434,19.4820717 67.9282869,19.8406375 66.6932271,19.8406375 C65.498008,19.8406375 64.5418327,19.4422311 63.8247012,18.7250996 C62.8685259,17.7689243 62.310757,16.2151394 62.310757,14.7808765 L73.4262948,14.7808765 L73.4661355,13.187251 C73.5059761,11.0756972 72.749004,9.0438247 71.4741036,7.64940239 C70.2788845,6.45418327 68.685259,5.69721116 66.6533865,5.69721116 Z M62.3505976,12.5498008 C62.4302789,10.2390438 63.8247012,7.92828685 66.6533865,7.92828685 C68.0478088,7.92828685 69.0836653,8.48605578 69.7609562,9.3625498 C70.3984064,10.1992032 70.7171315,11.3944223 70.7171315,12.5498008 L62.3505976,12.5498008 Z" id="Shape" fill-rule="nonzero"></path>
                <path d="M82.3904382,5.69721116 C79.6812749,5.69721116 77.5697211,7.09163347 76.4541833,8.96414343 C75.5776892,10.438247 75.2589641,12.1115538 75.2589641,13.9840637 C75.2589641,16.2151394 75.8964143,18.2868526 77.2111554,19.8007968 C78.4063745,21.2350598 80.1992032,22.1513944 82.4302789,22.1513944 C83.9043825,22.1513944 85.2988048,21.7131474 86.4143426,20.9561753 C87.689243,20.0796813 88.6055777,18.6454183 88.8446215,17.0916335 L86.2549801,17.0916335 C86.0557769,17.9282869 85.7768924,18.3665339 85.3386454,18.8047809 C84.7011952,19.4820717 83.6653386,19.8406375 82.4302789,19.8406375 C81.2350598,19.8406375 80.2788845,19.4422311 79.561753,18.7250996 C78.6055777,17.7689243 78.0478088,16.2151394 78.0478088,14.7808765 L89.1633466,14.7808765 L89.2031873,13.187251 C89.2430279,11.0756972 88.4860558,9.0438247 87.2111554,7.64940239 C86.0159363,6.45418327 84.4223108,5.69721116 82.3904382,5.69721116 Z M78.0876494,12.5498008 C78.1673307,10.2390438 79.561753,7.92828685 82.3904382,7.92828685 C83.7848606,7.92828685 84.8207171,8.48605578 85.498008,9.3625498 C86.1354582,10.1992032 86.4541833,11.3944223 86.4541833,12.5498008 L78.0876494,12.5498008 Z" id="Shape" fill-rule="nonzero"></path>
                <polygon id="Path" points="99.6414343 8.12749004 99.0438247 6.21513944 93.5059761 8.16733068 93.0278884 6.13545817 90.9960159 6.13545817 90.9960159 21.7928287 93.625498 21.7928287 93.625498 10.6772908"></polygon>
                <rect id="Rectangle" x="17.5298805" y="18.9243028" width="2.90836653" height="2.90836653"></rect>
                <rect id="Rectangle" x="17.5298805" y="6.09561753" width="2.90836653" height="2.90836653"></rect>
                <rect id="Rectangle" x="24.3824701" y="6.09561753" width="2.90836653" height="2.90836653"></rect>
                <rect id="Rectangle" x="10.7171315" y="6.09561753" width="2.90836653" height="2.90836653"></rect>
                <rect id="Rectangle" x="20.9561753" y="12.5099602" width="2.90836653" height="2.90836653"></rect>
                <rect id="Rectangle" x="14.1035857" y="12.5099602" width="2.90836653" height="2.90836653"></rect>
                <rect id="Rectangle" x="5.29880478" y="0" width="2.90836653" height="2.90836653"></rect>
                <rect id="Rectangle" x="0" y="0" width="2.62948207" height="21.752988"></rect>
                <rect id="Rectangle" x="5.41832669" y="6.09561753" width="2.62948207" height="15.6972112"></rect>
            </g>
        </g>
    </g>
</svg>